#N canvas 783 46 840 786 12;
#N canvas 0 22 450 278 (subpatch) 0;
#X array arreglo 44101 float 2;
#X coords 0 1 44101 -1 200 140 1 0 0;
#X restore 360 28 graph;
#X obj 20 470 tabread~ arreglo;
#X obj 174 363 samplerate~;
#X floatatom 174 393 5 0 0 0 - - - 0;
#X obj 173 312 loadbang;
#X obj 173 338 bng 15 250 50 0 empty empty empty 17 7 0 10 #fcfcfc
#000000 #000000;
#X obj 20 441 *~ 44100, f 31;
#X obj 21 531 *~, f 38;
#X obj 24 167 soundfiler;
#X msg 48 139 read -resize ./sonido-aplauso.wav arreglo;
#X msg 22 113 read -resize ./sonido-silbido.wav arreglo;
#X obj 388 689 dac~;
#X obj 21 637 delwrite~ linea 10000;
#X obj 459 567 delread~ linea 1000;
#X floatatom 394 372 5 0 0 0 - - - 0;
#X obj 394 399 / 127;
#X floatatom 610 435 5 0 0 0 - - - 0;
#X obj 397 347 hsl 128 15 0 127 0 0 empty empty empty -2 -8 0 10 #fcfcfc
#000000 #000000 0 1;
#X text 328 342 original;
#X obj 372 588 *~;
#X obj 459 600 *~, f 22;
#X text 533 343 retraso;
#X text 18 10 13-retraso \, v0.0.1 septiembre 2022 \, por montoyamoraga
\, AUDIV020 Diseno de instrumentos musicales digitales \, hecho con
Pd v0.52-2 en Mac OS Monterey 12.5, f 34;
#X obj 22 86 loadbang;
#X obj 394 317 loadbang;
#X obj 394 434 expr 1 - $f1;
#X floatatom 393 472 5 0 0 0 - - - 0;
#X obj 284 311 vsl 15 128 0 127 0 0 empty empty empty 0 -9 0 10 #fcfcfc
#000000 #000000 0 1;
#X floatatom 284 450 5 0 0 0 - - - 0;
#X obj 284 474 / 127;
#X text 273 285 volumen;
#X floatatom 284 500 5 0 0 0 - - - 0;
#X text 28 495 sonido del buffer;
#X text 406 490 volumen original;
#X text 622 457 volumen efecto;
#X obj 20 413 vline~;
#X obj 20 352 bng 15 250 50 0 empty empty empty 17 7 0 10 #fcfcfc #000000
#000000;
#X msg 19 376 0 0 0 \, 1 1000 0;
#N canvas 1101 575 399 293 selectorTecla 1;
#X obj 97 247 outlet;
#X obj 266 27 inlet;
#X floatatom 265 58 5 0 0 0 - - - 0;
#X obj 97 27 key;
#X obj 158 20 keyup;
#X obj 98 176 tgl 15 0 empty empty empty 17 7 0 10 #fcfcfc #000000
#000000 0 1;
#X msg 98 99 1;
#X msg 158 98 0;
#X obj 99 149 change;
#X obj 97 225 bng 15 250 50 0 empty empty empty 17 7 0 10 #fcfcfc #000000
#000000;
#X obj 97 197 sel 1 0;
#X floatatom 99 123 5 0 0 0 - - - 0;
#X floatatom 44 71 5 0 0 0 - - - 0;
#X obj 98 71 sel 120;
#X obj 157 71 sel 120;
#X obj 160 244 outlet;
#X obj 159 224 bng 15 250 50 0 empty empty empty 17 7 0 10 #fcfcfc
#000000 #000000;
#X connect 1 0 2 0;
#X connect 1 0 13 1;
#X connect 1 0 14 1;
#X connect 3 0 12 0;
#X connect 3 0 13 0;
#X connect 4 0 14 0;
#X connect 5 0 10 0;
#X connect 6 0 11 0;
#X connect 7 0 11 0;
#X connect 8 0 5 0;
#X connect 9 0 0 0;
#X connect 10 0 9 0;
#X connect 10 1 16 0;
#X connect 11 0 8 0;
#X connect 13 0 6 0;
#X connect 14 0 7 0;
#X connect 16 0 15 0;
#X restore 20 326 pd selectorTecla;
#X msg 20 298 120;
#X obj 20 273 loadbang;
#X text 51 298 tecla x;
#X text 403 526 leer linea delay;
#X text 405 544 argumento es posicion en ms;
#X text 36 615 argumento es duracion en ms;
#X text 34 597 escribir en linea delay;
#X connect 1 0 7 0;
#X connect 2 0 3 0;
#X connect 3 0 6 1;
#X connect 4 0 5 0;
#X connect 5 0 2 0;
#X connect 6 0 1 0;
#X connect 7 0 12 0;
#X connect 7 0 19 0;
#X connect 9 0 8 0;
#X connect 10 0 8 0;
#X connect 13 0 20 0;
#X connect 14 0 15 0;
#X connect 15 0 16 0;
#X connect 15 0 25 0;
#X connect 16 0 20 1;
#X connect 17 0 14 0;
#X connect 19 0 11 0;
#X connect 19 0 11 1;
#X connect 20 0 11 0;
#X connect 20 0 11 1;
#X connect 23 0 10 0;
#X connect 24 0 17 0;
#X connect 25 0 26 0;
#X connect 26 0 19 1;
#X connect 27 0 28 0;
#X connect 28 0 29 0;
#X connect 29 0 31 0;
#X connect 31 0 7 1;
#X connect 35 0 6 0;
#X connect 36 0 37 0;
#X connect 37 0 35 0;
#X connect 38 0 36 0;
#X connect 39 0 38 0;
#X connect 40 0 39 0;
