#N canvas 876 130 906 707 12;
#X obj 22 512 *~, f 38;
#X obj 390 619 dac~;
#X floatatom 396 302 5 0 0 0 - - - 0;
#X obj 396 329 / 127;
#X floatatom 613 369 5 0 0 0 - - - 0;
#X obj 399 277 hsl 128 15 0 127 0 0 empty empty empty -2 -8 0 10 #fcfcfc
#000000 #000000 0 1;
#X text 337 280 original;
#X obj 376 571 *~;
#X obj 459 569 *~, f 22;
#X obj 396 247 loadbang;
#X obj 396 364 expr 1 - $f1;
#X floatatom 395 402 5 0 0 0 - - - 0;
#X obj 285 289 vsl 15 128 0 127 0 0 empty empty empty 0 -9 0 10 #fcfcfc
#000000 #000000 0 1;
#X floatatom 285 428 5 0 0 0 - - - 0;
#X obj 285 452 / 127;
#X text 303 393 volumen;
#X floatatom 285 478 5 0 0 0 - - - 0;
#X text 408 420 volumen original;
#X text 625 391 volumen efecto;
#X obj 137 251 vline~;
#X obj 110 173 bng 15 250 50 0 empty empty empty 17 7 0 10 #fcfcfc
#000000 #000000;
#X obj 219 172 bng 15 250 50 0 empty empty empty 17 7 0 10 #fcfcfc
#000000 #000000;
#X msg 233 196 0 1000 0;
#X text 130 222 arribo;
#X text 242 218 decaimiento;
#X obj 167 348 metro 100;
#X obj 167 329 tgl 15 0 empty empty empty 17 7 0 10 #fcfcfc #000000
#000000 0 1;
#X obj 168 397 snapshot~;
#X obj 167 373 bng 15 250 50 0 empty empty empty 17 7 0 10 #fcfcfc
#000000 #000000;
#X floatatom 168 421 5 0 0 0 - - - 0;
#X obj 167 281 loadbang;
#X msg 167 305 1;
#X msg 109 197 0 0 0 \, 1 1000 0;
#X obj 21 488 *~;
#N canvas 792 1476 399 293 selectorTecla 0;
#X obj 97 247 outlet;
#X obj 266 27 inlet;
#X floatatom 265 58 5 0 0 0 - - - 0;
#X obj 97 27 key;
#X obj 158 20 keyup;
#X obj 98 176 tgl 15 0 empty empty empty 17 7 0 10 #fcfcfc #000000
#000000 0 1;
#X msg 98 99 1;
#X msg 158 98 0;
#X obj 99 149 change;
#X obj 97 225 bng 15 250 50 0 empty empty empty 17 7 0 10 #fcfcfc #000000
#000000;
#X obj 97 197 sel 1 0;
#X floatatom 99 123 5 0 0 0 - - - 0;
#X floatatom 44 71 5 0 0 0 - - - 0;
#X obj 98 71 sel 120;
#X obj 157 71 sel 120;
#X obj 159 246 outlet;
#X obj 159 224 bng 15 250 50 0 empty empty empty 17 7 0 10 #fcfcfc
#000000 #000000;
#X connect 1 0 2 0;
#X connect 1 0 13 1;
#X connect 1 0 14 1;
#X connect 3 0 12 0;
#X connect 3 0 13 0;
#X connect 4 0 14 0;
#X connect 5 0 10 0;
#X connect 6 0 11 0;
#X connect 7 0 11 0;
#X connect 8 0 5 0;
#X connect 9 0 0 0;
#X connect 10 0 9 0;
#X connect 10 1 16 0;
#X connect 11 0 8 0;
#X connect 13 0 6 0;
#X connect 14 0 7 0;
#X connect 16 0 15 0;
#X restore 110 147 pd selectorTecla;
#X msg 110 119 120;
#X obj 110 94 loadbang;
#X obj 459 544 rev1~;
#X obj 624 106 vsl 15 128 0 127 0 0 empty empty empty 0 -9 0 10 #fcfcfc
#000000 #000000 0 1;
#X floatatom 624 245 5 0 0 0 - - - 0;
#X obj 624 269 / 127;
#X obj 624 299 * 100;
#X floatatom 623 327 5 0 0 0 - - - 0;
#X text 533 276 efecto;
#X text 613 80 cantidad reverb;
#X text 18 10 13-reverb-buffer \, v0.0.1 septiembre 2022 \, por montoyamoraga
\, AUDIV020 Diseno de instrumentos musicales digitales \, hecho con
Pd v0.52-2 en Mac OS Monterey 12.5, f 34;
#X obj 275 98 soundfiler;
#X msg 299 70 read -resize ./sonido-aplauso.wav arreglo;
#X msg 273 44 read -resize ./sonido-silbido.wav arreglo;
#X obj 273 17 loadbang;
#N canvas 0 22 450 278 (subpatch) 0;
#X array arreglo 22051 float 2;
#X coords 0 1 22051 -1 200 140 1 0 0;
#X restore 668 553 graph;
#X connect 0 0 7 0;
#X connect 0 0 37 0;
#X connect 2 0 3 0;
#X connect 3 0 4 0;
#X connect 3 0 10 0;
#X connect 4 0 8 1;
#X connect 5 0 2 0;
#X connect 7 0 1 0;
#X connect 7 0 1 1;
#X connect 8 0 1 0;
#X connect 8 0 1 1;
#X connect 9 0 5 0;
#X connect 10 0 11 0;
#X connect 11 0 7 1;
#X connect 12 0 13 0;
#X connect 13 0 14 0;
#X connect 14 0 16 0;
#X connect 16 0 0 1;
#X connect 19 0 27 0;
#X connect 19 0 33 1;
#X connect 20 0 32 0;
#X connect 21 0 22 0;
#X connect 22 0 19 0;
#X connect 25 0 28 0;
#X connect 26 0 25 0;
#X connect 27 0 29 0;
#X connect 28 0 27 0;
#X connect 30 0 31 0;
#X connect 31 0 26 0;
#X connect 32 0 19 0;
#X connect 33 0 0 0;
#X connect 34 0 20 0;
#X connect 34 1 21 0;
#X connect 35 0 34 0;
#X connect 36 0 35 0;
#X connect 37 0 8 0;
#X connect 38 0 39 0;
#X connect 39 0 40 0;
#X connect 40 0 41 0;
#X connect 41 0 42 0;
#X connect 42 0 37 1;
#X connect 47 0 46 0;
#X connect 48 0 46 0;
#X connect 49 0 48 0;
