#N canvas 440 241 768 690 12;
#X obj 23 536 *~, f 38;
#X obj 390 619 dac~;
#X obj 24 576 delwrite~ linea 10000;
#X obj 461 497 delread~ linea 1000;
#X floatatom 396 302 5 0 0 0 - - - 0;
#X obj 396 329 / 127;
#X floatatom 612 365 5 0 0 0 - - - 0;
#X obj 399 277 hsl 128 15 0 127 0 0 empty empty empty -2 -8 0 10 #fcfcfc
#000000 #000000 0 1;
#X text 329 344 original;
#X obj 388 578 *~;
#X obj 461 530 *~, f 22;
#X text 535 273 retraso;
#X obj 396 247 loadbang;
#X obj 396 364 expr 1 - $f1;
#X floatatom 395 402 5 0 0 0 - - - 0;
#X obj 285 313 vsl 15 128 0 127 0 0 empty empty empty 0 -9 0 10 #fcfcfc
#000000 #000000 0 1;
#X floatatom 285 452 5 0 0 0 - - - 0;
#X obj 285 476 / 127;
#X text 274 287 volumen;
#X floatatom 285 502 5 0 0 0 - - - 0;
#X text 408 420 volumen original;
#X text 624 387 volumen efecto;
#X obj 137 275 vline~;
#X obj 109 190 bng 15 250 50 0 empty empty empty 17 7 0 10 #fcfcfc
#000000 #000000;
#X obj 218 189 bng 15 250 50 0 empty empty empty 17 7 0 10 #fcfcfc
#000000 #000000;
#X msg 232 213 0 1000 0;
#X text 129 239 arribo;
#X text 241 235 decaimiento;
#X obj 188 416 metro 100;
#X obj 188 397 tgl 15 0 empty empty empty 17 7 0 10 #fcfcfc #000000
#000000 0 1;
#X obj 189 465 snapshot~;
#X obj 188 441 bng 15 250 50 0 empty empty empty 17 7 0 10 #fcfcfc
#000000 #000000;
#X floatatom 189 489 5 0 0 0 - - - 0;
#X obj 188 349 loadbang;
#X msg 108 214 0 0 0 \, 1 1000 0;
#X obj 20 479 osc~;
#X obj 20 296 vsl 15 128 0 127 0 0 empty empty empty 0 -9 0 10 #fcfcfc
#000000 #000000 0 1;
#X obj 20 431 mtof;
#X floatatom 20 455 5 0 0 0 - - - 0;
#X obj 21 507 *~;
#X floatatom 460 470 5 0 0 0 - - - 0;
#X text 21 274 frecuencia;
#N canvas 792 1476 399 293 selectorTecla 0;
#X obj 97 247 outlet;
#X obj 266 27 inlet;
#X floatatom 265 58 5 0 0 0 - - - 0;
#X obj 97 27 key;
#X obj 158 20 keyup;
#X obj 98 176 tgl 15 0 empty empty empty 17 7 0 10 #fcfcfc #000000
#000000 0 1;
#X msg 98 99 1;
#X msg 158 98 0;
#X obj 99 149 change;
#X obj 97 225 bng 15 250 50 0 empty empty empty 17 7 0 10 #fcfcfc #000000
#000000;
#X obj 97 197 sel 1 0;
#X floatatom 99 123 5 0 0 0 - - - 0;
#X floatatom 44 71 5 0 0 0 - - - 0;
#X obj 98 71 sel 120;
#X obj 157 71 sel 120;
#X obj 159 246 outlet;
#X obj 159 224 bng 15 250 50 0 empty empty empty 17 7 0 10 #fcfcfc
#000000 #000000;
#X connect 1 0 2 0;
#X connect 1 0 13 1;
#X connect 1 0 14 1;
#X connect 3 0 12 0;
#X connect 3 0 13 0;
#X connect 4 0 14 0;
#X connect 5 0 10 0;
#X connect 6 0 11 0;
#X connect 7 0 11 0;
#X connect 8 0 5 0;
#X connect 9 0 0 0;
#X connect 10 0 9 0;
#X connect 10 1 16 0;
#X connect 11 0 8 0;
#X connect 13 0 6 0;
#X connect 14 0 7 0;
#X connect 16 0 15 0;
#X restore 109 164 pd selectorTecla;
#X msg 109 136 120;
#X obj 109 111 loadbang;
#X text 20 618 argumento es duracion en ms;
#X text 475 585 argumento es posicion en ms;
#X msg 188 373 0;
#X text 18 600 escribir en linea;
#X text 473 567 leer linea;
#X text 18 10 13-retraso-oscilador \, v0.0.1 septiembre 2022 \, por
montoyamoraga \, AUDIV020 Diseno de instrumentos musicales digitales
\, hecho con Pd v0.52-2 en Mac OS Monterey 12.5, f 34;
#X connect 0 0 2 0;
#X connect 0 0 9 0;
#X connect 3 0 10 0;
#X connect 4 0 5 0;
#X connect 5 0 6 0;
#X connect 5 0 13 0;
#X connect 6 0 10 1;
#X connect 7 0 4 0;
#X connect 9 0 1 0;
#X connect 9 0 1 1;
#X connect 10 0 1 0;
#X connect 10 0 1 1;
#X connect 12 0 7 0;
#X connect 13 0 14 0;
#X connect 14 0 9 1;
#X connect 15 0 16 0;
#X connect 16 0 17 0;
#X connect 17 0 19 0;
#X connect 19 0 0 1;
#X connect 22 0 30 0;
#X connect 22 0 39 1;
#X connect 23 0 34 0;
#X connect 24 0 25 0;
#X connect 25 0 22 0;
#X connect 28 0 31 0;
#X connect 29 0 28 0;
#X connect 30 0 32 0;
#X connect 31 0 30 0;
#X connect 33 0 47 0;
#X connect 34 0 22 0;
#X connect 35 0 39 0;
#X connect 36 0 37 0;
#X connect 37 0 38 0;
#X connect 38 0 35 0;
#X connect 39 0 0 0;
#X connect 40 0 3 0;
#X connect 42 0 23 0;
#X connect 42 1 24 0;
#X connect 43 0 42 0;
#X connect 44 0 43 0;
#X connect 47 0 29 0;
