#N canvas 188 167 975 788 12;
#N canvas 0 22 450 278 (subpatch) 0;
#X array arreglo 44101 float 2;
#X coords 0 1 44101 -1 200 140 1 0 0;
#X restore 360 28 graph;
#X obj 20 482 tabread~ arreglo;
#X obj 234 227 samplerate~;
#X floatatom 234 257 5 0 0 0 - - - 0;
#X obj 233 176 loadbang;
#X obj 233 202 bng 15 250 50 0 empty empty empty 17 7 0 10 #fcfcfc
#000000 #000000;
#X obj 20 423 phasor~ 1;
#X obj 20 453 *~ 44100, f 31;
#X obj 21 531 *~, f 38;
#X obj 20 209 vsl 15 128 0 127 0 0 empty empty empty 0 -9 0 10 #fcfcfc
#000000 #000000 0 1;
#X floatatom 21 345 5 0 0 0 - - - 0;
#X obj 13 174 soundfiler;
#X msg 28 145 read -resize ./sonido-aplauso.wav arreglo;
#X msg 11 120 read -resize ./sonido-silbido.wav arreglo;
#X text 39 268 velocidad;
#X obj 388 689 dac~;
#X obj 20 678 delwrite~ linea 10000;
#X floatatom 392 309 5 0 0 0 - - - 0;
#X obj 392 336 / 127;
#X floatatom 610 435 5 0 0 0 - - - 0;
#X obj 395 284 hsl 128 15 0 127 0 0 empty empty empty -2 -8 0 10 #fcfcfc
#000000 #000000 0 1;
#X text 326 279 original;
#X obj 372 562 *~;
#X obj 459 600 *~, f 22;
#X text 531 280 retraso;
#X obj 11 93 loadbang;
#X obj 392 254 loadbang;
#X obj 392 371 expr 1 - $f1;
#X floatatom 391 409 5 0 0 0 - - - 0;
#X floatatom 21 396 5 0 0 0 - - - 0;
#X obj 284 311 vsl 15 128 0 127 0 0 empty empty empty 0 -9 0 10 #fcfcfc
#000000 #000000 0 1;
#X floatatom 284 450 5 0 0 0 - - - 0;
#X obj 284 474 / 127;
#X text 273 285 volumen;
#X floatatom 284 500 5 0 0 0 - - - 0;
#X obj 21 370 expr 10 * ($f1 / 127 - 0.5);
#X text 28 507 sonido del buffer;
#X text 404 427 volumen original;
#X text 622 457 volumen efecto;
#X obj 779 455 vsl 15 128 0 127 0 0 empty empty empty 0 -9 0 10 #fcfcfc
#000000 #000000 0 1;
#X floatatom 779 593 5 0 0 0 - - - 0;
#X obj 779 617 / 127;
#X floatatom 779 641 5 0 0 0 - - - 0;
#X text 773 432 retroalimentacion;
#X obj 54 647 *~;
#X text 14 2 15-retraso-variable \, v0.0.1 septiembre 2022 \, por montoyamoraga
\, AUDIV020 Diseno de instrumentos musicales digitales \, hecho con
Pd v0.52-2 en Mac OS Monterey 12.5, f 34;
#X obj 459 569 delread4~ linea;
#X obj 458 543 line~;
#X floatatom 457 490 5 0 0 0 - - - 0;
#X obj 458 515 pack f 1000;
#X obj 675 200 vsl 15 128 0 127 0 0 empty empty empty 0 -9 0 10 #fcfcfc
#000000 #000000 0 1;
#X text 671 178 tiempo retraso;
#X obj 675 340 expr 1000 * ($f1 / 127);
#X connect 1 0 8 0;
#X connect 2 0 3 0;
#X connect 3 0 7 1;
#X connect 4 0 5 0;
#X connect 5 0 2 0;
#X connect 6 0 7 0;
#X connect 7 0 1 0;
#X connect 8 0 16 0;
#X connect 8 0 22 0;
#X connect 9 0 10 0;
#X connect 10 0 35 0;
#X connect 12 0 11 0;
#X connect 13 0 11 0;
#X connect 17 0 18 0;
#X connect 18 0 19 0;
#X connect 18 0 27 0;
#X connect 19 0 23 1;
#X connect 20 0 17 0;
#X connect 22 0 15 0;
#X connect 22 0 15 1;
#X connect 23 0 15 0;
#X connect 23 0 15 1;
#X connect 25 0 13 0;
#X connect 26 0 20 0;
#X connect 27 0 28 0;
#X connect 28 0 22 1;
#X connect 29 0 6 0;
#X connect 30 0 31 0;
#X connect 31 0 32 0;
#X connect 32 0 34 0;
#X connect 34 0 8 1;
#X connect 35 0 29 0;
#X connect 39 0 40 0;
#X connect 40 0 41 0;
#X connect 41 0 42 0;
#X connect 42 0 44 1;
#X connect 44 0 16 0;
#X connect 46 0 44 0;
#X connect 46 0 23 0;
#X connect 47 0 46 0;
#X connect 48 0 49 0;
#X connect 49 0 47 0;
#X connect 50 0 52 0;
#X connect 52 0 48 0;
