#N canvas 923 86 975 788 12;
#X obj 21 531 *~, f 38;
#X obj 388 689 dac~;
#X obj 20 678 delwrite~ linea 10000;
#X floatatom 392 309 5 0 0 0 - - - 0;
#X obj 392 336 / 127;
#X floatatom 610 435 5 0 0 0 - - - 0;
#X obj 395 284 hsl 128 15 0 127 0 0 empty empty empty -2 -8 0 10 #fcfcfc
#000000 #000000 0 1;
#X text 326 279 original;
#X obj 372 562 *~;
#X obj 459 600 *~, f 22;
#X text 531 280 retraso;
#X obj 392 254 loadbang;
#X obj 392 371 expr 1 - $f1;
#X floatatom 391 409 5 0 0 0 - - - 0;
#X obj 284 311 vsl 15 128 0 127 0 0 empty empty empty 0 -9 0 10 #fcfcfc
#000000 #000000 0 1;
#X floatatom 284 450 5 0 0 0 - - - 0;
#X obj 284 474 / 127;
#X text 273 285 volumen;
#X floatatom 284 500 5 0 0 0 - - - 0;
#X text 404 427 volumen original;
#X text 622 457 volumen efecto;
#X obj 779 455 vsl 15 128 0 127 0 0 empty empty empty 0 -9 0 10 #fcfcfc
#000000 #000000 0 1;
#X floatatom 779 593 5 0 0 0 - - - 0;
#X obj 779 617 / 127;
#X floatatom 779 641 5 0 0 0 - - - 0;
#X text 773 432 retroalimentacion;
#X obj 54 647 *~;
#X obj 459 569 delread4~ linea;
#X obj 459 537 line~;
#X floatatom 461 483 5 0 0 0 - - - 0;
#X obj 462 508 pack f 1000;
#X obj 675 200 vsl 15 128 0 127 0 0 empty empty empty 0 -9 0 10 #fcfcfc
#000000 #000000 0 1;
#X text 691 172 tiempo retraso;
#X obj 675 340 expr 1000 * ($f1 / 127);
#X obj 137 254 vline~;
#X obj 109 169 bng 15 250 50 0 empty empty empty 17 7 0 10 #fcfcfc
#000000 #000000;
#X obj 218 168 bng 15 250 50 0 empty empty empty 17 7 0 10 #fcfcfc
#000000 #000000;
#X msg 232 192 0 1000 0;
#X text 129 218 arribo;
#X text 241 214 decaimiento;
#X obj 188 395 metro 100;
#X obj 188 376 tgl 15 0 empty empty empty 17 7 0 10 #fcfcfc #000000
#000000 0 1;
#X obj 189 444 snapshot~;
#X obj 188 420 bng 15 250 50 0 empty empty empty 17 7 0 10 #fcfcfc
#000000 #000000;
#X floatatom 189 468 5 0 0 0 - - - 0;
#X obj 188 328 loadbang;
#X msg 108 193 0 0 0 \, 1 1000 0;
#X obj 20 458 osc~;
#X obj 20 275 vsl 15 128 0 127 0 0 empty empty empty 0 -9 0 10 #fcfcfc
#000000 #000000 0 1;
#X obj 20 410 mtof;
#X floatatom 20 434 5 0 0 0 - - - 0;
#X obj 21 486 *~;
#X text 21 253 frecuencia;
#N canvas 792 1476 399 293 selectorTecla 0;
#X obj 97 247 outlet;
#X obj 266 27 inlet;
#X floatatom 265 58 5 0 0 0 - - - 0;
#X obj 97 27 key;
#X obj 158 20 keyup;
#X obj 98 176 tgl 15 0 empty empty empty 17 7 0 10 #fcfcfc #000000
#000000 0 1;
#X msg 98 99 1;
#X msg 158 98 0;
#X obj 99 149 change;
#X obj 97 225 bng 15 250 50 0 empty empty empty 17 7 0 10 #fcfcfc #000000
#000000;
#X obj 97 197 sel 1 0;
#X floatatom 99 123 5 0 0 0 - - - 0;
#X floatatom 44 71 5 0 0 0 - - - 0;
#X obj 98 71 sel 120;
#X obj 157 71 sel 120;
#X obj 159 246 outlet;
#X obj 159 224 bng 15 250 50 0 empty empty empty 17 7 0 10 #fcfcfc
#000000 #000000;
#X connect 1 0 2 0;
#X connect 1 0 13 1;
#X connect 1 0 14 1;
#X connect 3 0 12 0;
#X connect 3 0 13 0;
#X connect 4 0 14 0;
#X connect 5 0 10 0;
#X connect 6 0 11 0;
#X connect 7 0 11 0;
#X connect 8 0 5 0;
#X connect 9 0 0 0;
#X connect 10 0 9 0;
#X connect 10 1 16 0;
#X connect 11 0 8 0;
#X connect 13 0 6 0;
#X connect 14 0 7 0;
#X connect 16 0 15 0;
#X restore 109 143 pd selectorTecla;
#X msg 109 115 120;
#X obj 109 90 loadbang;
#X msg 188 352 0;
#X connect 0 0 2 0;
#X connect 0 0 8 0;
#X connect 3 0 4 0;
#X connect 4 0 5 0;
#X connect 4 0 12 0;
#X connect 5 0 9 1;
#X connect 6 0 3 0;
#X connect 8 0 1 0;
#X connect 8 0 1 1;
#X connect 9 0 1 0;
#X connect 9 0 1 1;
#X connect 11 0 6 0;
#X connect 12 0 13 0;
#X connect 13 0 8 1;
#X connect 14 0 15 0;
#X connect 15 0 16 0;
#X connect 16 0 18 0;
#X connect 18 0 0 1;
#X connect 21 0 22 0;
#X connect 22 0 23 0;
#X connect 23 0 24 0;
#X connect 24 0 26 1;
#X connect 26 0 2 0;
#X connect 27 0 26 0;
#X connect 27 0 9 0;
#X connect 28 0 27 0;
#X connect 29 0 30 0;
#X connect 30 0 28 0;
#X connect 31 0 33 0;
#X connect 33 0 29 0;
#X connect 34 0 42 0;
#X connect 34 0 51 1;
#X connect 35 0 46 0;
#X connect 36 0 37 0;
#X connect 37 0 34 0;
#X connect 40 0 43 0;
#X connect 41 0 40 0;
#X connect 42 0 44 0;
#X connect 43 0 42 0;
#X connect 45 0 56 0;
#X connect 46 0 34 0;
#X connect 47 0 51 0;
#X connect 48 0 49 0;
#X connect 49 0 50 0;
#X connect 50 0 47 0;
#X connect 51 0 0 0;
#X connect 53 0 35 0;
#X connect 53 1 36 0;
#X connect 54 0 53 0;
#X connect 55 0 54 0;
#X connect 56 0 41 0;
