#N canvas 725 46 840 786 12;
#N canvas 0 22 450 278 (subpatch) 0;
#X array arreglo 44101 float 2;
#X coords 0 1 44101 -1 200 140 1 0 0;
#X restore 360 28 graph;
#X obj 11 404 tabread~ arreglo;
#X obj 221 150 samplerate~;
#X floatatom 226 173 5 0 0 0 - - - 0;
#X obj 220 99 loadbang;
#X obj 221 128 bng 15 250 50 0 empty empty empty 17 7 0 10 #fcfcfc
#000000 #000000;
#X obj 11 291 *~ 44100, f 31;
#X obj 12 450 *~, f 38;
#X obj 21 82 soundfiler;
#X msg 45 54 read -resize ./sonido-aplauso.wav arreglo;
#X msg 19 28 read -resize ./sonido-silbido.wav arreglo;
#X obj 379 599 dac~;
#X floatatom 385 282 5 0 0 0 - - - 0;
#X obj 385 309 / 127;
#X floatatom 626 347 5 0 0 0 - - - 0;
#X obj 388 257 hsl 128 15 0 127 0 0 empty empty empty -2 -8 0 10 #fcfcfc
#000000 #000000 0 1;
#X text 371 240 original;
#X obj 363 498 *~;
#X obj 450 510 *~, f 25;
#X text 475 239 retraso;
#X obj 385 211 loadbang;
#X obj 385 344 expr 1 - $f1;
#X floatatom 384 382 5 0 0 0 - - - 0;
#X obj 320 221 vsl 15 128 0 127 0 0 empty empty empty 0 -9 0 10 #fcfcfc
#000000 #000000 0 1;
#X floatatom 320 360 5 0 0 0 - - - 0;
#X obj 320 384 / 127;
#X text 264 195 volumen;
#X floatatom 320 410 5 0 0 0 - - - 0;
#X text 19 429 sonido del buffer;
#X text 397 400 volumen original;
#X text 638 369 volumen efecto;
#X obj 11 263 vline~;
#X obj 11 202 bng 15 250 50 0 empty empty empty 17 7 0 10 #fcfcfc #000000
#000000;
#X msg 10 226 0 0 0 \, 1 1000 0;
#N canvas 1101 575 399 293 selectorTecla 0;
#X obj 97 247 outlet;
#X obj 266 27 inlet;
#X floatatom 265 58 5 0 0 0 - - - 0;
#X obj 97 27 key;
#X obj 158 20 keyup;
#X obj 98 176 tgl 15 0 empty empty empty 17 7 0 10 #fcfcfc #000000
#000000 0 1;
#X msg 98 99 1;
#X msg 158 98 0;
#X obj 99 149 change;
#X obj 97 225 bng 15 250 50 0 empty empty empty 17 7 0 10 #fcfcfc #000000
#000000;
#X obj 97 197 sel 1 0;
#X floatatom 99 123 5 0 0 0 - - - 0;
#X floatatom 44 71 5 0 0 0 - - - 0;
#X obj 98 71 sel 120;
#X obj 157 71 sel 120;
#X obj 160 244 outlet;
#X obj 159 224 bng 15 250 50 0 empty empty empty 17 7 0 10 #fcfcfc
#000000 #000000;
#X connect 1 0 2 0;
#X connect 1 0 13 1;
#X connect 1 0 14 1;
#X connect 3 0 12 0;
#X connect 3 0 13 0;
#X connect 4 0 14 0;
#X connect 5 0 10 0;
#X connect 6 0 11 0;
#X connect 7 0 11 0;
#X connect 8 0 5 0;
#X connect 9 0 0 0;
#X connect 10 0 9 0;
#X connect 10 1 16 0;
#X connect 11 0 8 0;
#X connect 13 0 6 0;
#X connect 14 0 7 0;
#X connect 16 0 15 0;
#X restore 11 176 pd selectorTecla;
#X msg 11 148 120;
#X obj 11 123 loadbang;
#X text 42 148 tecla x;
#X text 410 454 argumento es posicion en ms;
#X text 27 525 argumento es duracion en ms;
#X text 25 507 escribir en linea;
#X text 408 436 leer linea;
#X obj 12 547 delwrite~ linea13b 10000;
#X obj 450 477 delread~ linea13b 1000;
#X obj 13 379 *~;
#X floatatom 107 378 5 0 0 0 - - - 0;
#X text 125 93 velocidad;
#X obj 149 115 vsl 15 128 0 127 0 0 empty empty empty 0 -9 0 10 #fcfcfc
#000000 #000000 0 1;
#X floatatom 149 260 5 0 0 0 - - - 0;
#X obj 107 349 expr 10 * ($f1 / 127);
#X connect 1 0 7 0;
#X connect 2 0 3 0;
#X connect 3 0 6 1;
#X connect 4 0 5 0;
#X connect 5 0 2 0;
#X connect 6 0 44 0;
#X connect 7 0 17 0;
#X connect 7 0 42 0;
#X connect 9 0 8 0;
#X connect 10 0 8 0;
#X connect 12 0 13 0;
#X connect 13 0 14 0;
#X connect 13 0 21 0;
#X connect 14 0 18 1;
#X connect 15 0 12 0;
#X connect 17 0 11 0;
#X connect 17 0 11 1;
#X connect 18 0 11 0;
#X connect 18 0 11 1;
#X connect 20 0 15 0;
#X connect 21 0 22 0;
#X connect 22 0 17 1;
#X connect 23 0 24 0;
#X connect 24 0 25 0;
#X connect 25 0 27 0;
#X connect 27 0 7 1;
#X connect 31 0 6 0;
#X connect 32 0 33 0;
#X connect 33 0 31 0;
#X connect 34 0 32 0;
#X connect 35 0 34 0;
#X connect 36 0 35 0;
#X connect 43 0 18 0;
#X connect 44 0 1 0;
#X connect 45 0 44 1;
#X connect 47 0 48 0;
#X connect 48 0 49 0;
#X connect 49 0 45 0;
