#N canvas 1044 124 842 707 12;
#X obj 21 559 *~, f 38;
#X obj 416 688 dac~;
#X floatatom 423 438 5 0 0 0 - - - 0;
#X obj 423 465 / 127;
#X floatatom 640 505 5 0 0 0 - - - 0;
#X obj 426 413 hsl 128 15 0 127 0 0 empty empty empty -2 -8 0 10 #fcfcfc
#000000 #000000 0 1;
#X text 421 391 original;
#X obj 402 640 *~;
#X obj 485 638 *~, f 22;
#X obj 423 350 loadbang;
#X obj 423 500 expr 1 - $f1;
#X floatatom 422 538 5 0 0 0 - - - 0;
#X obj 284 336 vsl 15 128 0 127 0 0 empty empty empty 0 -9 0 10 #fcfcfc
#000000 #000000 0 1;
#X floatatom 284 475 5 0 0 0 - - - 0;
#X obj 284 499 / 127;
#X text 302 440 volumen;
#X floatatom 284 525 5 0 0 0 - - - 0;
#X text 435 556 volumen original;
#X text 652 527 volumen efecto;
#X obj 485 613 rev1~;
#X obj 651 242 vsl 15 128 0 127 0 0 empty empty empty 0 -9 0 10 #fcfcfc
#000000 #000000 0 1;
#X floatatom 651 381 5 0 0 0 - - - 0;
#X obj 651 405 / 127;
#X obj 651 435 * 100;
#X floatatom 650 463 5 0 0 0 - - - 0;
#X text 514 430 efecto;
#X text 637 221 cantidad reverb;
#X obj 18 97 soundfiler;
#X msg 42 69 read -resize ./sonido-aplauso.wav arreglo;
#X msg 16 43 read -resize ./sonido-silbido.wav arreglo;
#X obj 16 16 loadbang;
#N canvas 0 22 450 278 (subpatch) 0;
#X array arreglo 44101 float 2;
#X coords 0 1 44101 -1 200 140 1 0 0;
#X restore 372 50 graph;
#X obj 20 482 tabread~ arreglo;
#X text 28 507 sonido del buffer;
#X obj 234 185 samplerate~;
#X floatatom 239 208 5 0 0 0 - - - 0;
#X obj 233 134 loadbang;
#X obj 234 163 bng 15 250 50 0 empty empty empty 17 7 0 10 #fcfcfc
#000000 #000000;
#X obj 24 326 *~ 44100, f 31;
#X obj 24 298 vline~;
#X obj 24 237 bng 15 250 50 0 empty empty empty 17 7 0 10 #fcfcfc #000000
#000000;
#X msg 23 261 0 0 0 \, 1 1000 0;
#N canvas 1101 575 399 293 selectorTecla 0;
#X obj 97 247 outlet;
#X obj 266 27 inlet;
#X floatatom 265 58 5 0 0 0 - - - 0;
#X obj 97 27 key;
#X obj 158 20 keyup;
#X obj 98 176 tgl 15 0 empty empty empty 17 7 0 10 #fcfcfc #000000
#000000 0 1;
#X msg 98 99 1;
#X msg 158 98 0;
#X obj 99 149 change;
#X obj 97 225 bng 15 250 50 0 empty empty empty 17 7 0 10 #fcfcfc #000000
#000000;
#X obj 97 197 sel 1 0;
#X floatatom 99 123 5 0 0 0 - - - 0;
#X floatatom 44 71 5 0 0 0 - - - 0;
#X obj 98 71 sel 120;
#X obj 157 71 sel 120;
#X obj 160 244 outlet;
#X obj 159 224 bng 15 250 50 0 empty empty empty 17 7 0 10 #fcfcfc
#000000 #000000;
#X connect 1 0 2 0;
#X connect 1 0 13 1;
#X connect 1 0 14 1;
#X connect 3 0 12 0;
#X connect 3 0 13 0;
#X connect 4 0 14 0;
#X connect 5 0 10 0;
#X connect 6 0 11 0;
#X connect 7 0 11 0;
#X connect 8 0 5 0;
#X connect 9 0 0 0;
#X connect 10 0 9 0;
#X connect 10 1 16 0;
#X connect 11 0 8 0;
#X connect 13 0 6 0;
#X connect 14 0 7 0;
#X connect 16 0 15 0;
#X restore 24 211 pd selectorTecla;
#X msg 24 183 120;
#X obj 24 158 loadbang;
#X text 55 183 tecla x;
#X obj 26 414 *~;
#X floatatom 120 413 5 0 0 0 - - - 0;
#X text 138 128 velocidad;
#X obj 162 150 vsl 15 128 0 127 0 0 empty empty empty 0 -9 0 10 #fcfcfc
#000000 #000000 0 1;
#X floatatom 162 295 5 0 0 0 - - - 0;
#X obj 120 384 expr 10 * ($f1 / 127);
#X connect 0 0 7 0;
#X connect 0 0 19 0;
#X connect 2 0 3 0;
#X connect 3 0 4 0;
#X connect 3 0 10 0;
#X connect 4 0 8 1;
#X connect 5 0 2 0;
#X connect 7 0 1 0;
#X connect 7 0 1 1;
#X connect 8 0 1 0;
#X connect 8 0 1 1;
#X connect 9 0 5 0;
#X connect 10 0 11 0;
#X connect 11 0 7 1;
#X connect 12 0 13 0;
#X connect 13 0 14 0;
#X connect 14 0 16 0;
#X connect 16 0 0 1;
#X connect 19 0 8 0;
#X connect 20 0 21 0;
#X connect 21 0 22 0;
#X connect 22 0 23 0;
#X connect 23 0 24 0;
#X connect 24 0 19 1;
#X connect 28 0 27 0;
#X connect 29 0 27 0;
#X connect 30 0 29 0;
#X connect 32 0 0 0;
#X connect 34 0 35 0;
#X connect 35 0 38 1;
#X connect 36 0 37 0;
#X connect 37 0 34 0;
#X connect 38 0 46 0;
#X connect 39 0 38 0;
#X connect 40 0 41 0;
#X connect 41 0 39 0;
#X connect 42 0 40 0;
#X connect 43 0 42 0;
#X connect 44 0 43 0;
#X connect 46 0 32 0;
#X connect 47 0 46 1;
#X connect 49 0 50 0;
#X connect 50 0 51 0;
#X connect 51 0 47 0;
