#N canvas 1006 58 914 788 12;
#N canvas 0 22 450 278 (subpatch) 0;
#X array arreglo 22051 float 2;
#X coords 0 1 22051 -1 200 140 1 0 0;
#X restore 360 28 graph;
#X obj 20 482 tabread~ arreglo;
#X obj 21 531 *~, f 38;
#X obj 15 79 soundfiler;
#X msg 30 50 read -resize ./sonido-aplauso.wav arreglo;
#X msg 13 25 read -resize ./sonido-silbido.wav arreglo;
#X obj 388 689 dac~;
#X obj 20 678 delwrite~ linea 10000;
#X floatatom 392 309 5 0 0 0 - - - 0;
#X obj 392 336 / 127;
#X floatatom 610 435 5 0 0 0 - - - 0;
#X obj 395 284 hsl 128 15 0 127 0 0 empty empty empty -2 -8 0 10 #fcfcfc
#000000 #000000 0 1;
#X text 326 279 original;
#X obj 372 562 *~;
#X obj 459 600 *~, f 22;
#X text 531 280 retraso;
#X obj 392 254 loadbang;
#X obj 392 371 expr 1 - $f1;
#X floatatom 391 409 5 0 0 0 - - - 0;
#X obj 284 311 vsl 15 128 0 127 0 0 empty empty empty 0 -9 0 10 #fcfcfc
#000000 #000000 0 1;
#X floatatom 284 450 5 0 0 0 - - - 0;
#X obj 284 474 / 127;
#X text 273 285 volumen;
#X floatatom 284 500 5 0 0 0 - - - 0;
#X text 28 507 sonido del buffer;
#X text 404 427 volumen original;
#X text 622 457 volumen efecto;
#X obj 779 455 vsl 15 128 0 127 0 0 empty empty empty 0 -9 0 10 #fcfcfc
#000000 #000000 0 1;
#X floatatom 779 593 5 0 0 0 - - - 0;
#X obj 779 617 / 127;
#X floatatom 779 641 5 0 0 0 - - - 0;
#X text 773 432 retroalimentacion;
#X obj 54 647 *~;
#X obj 459 569 delread4~ linea;
#X obj 458 543 line~;
#X floatatom 457 490 5 0 0 0 - - - 0;
#X obj 458 515 pack f 1000;
#X obj 675 200 vsl 15 128 0 127 0 0 empty empty empty 0 -9 0 10 #fcfcfc
#000000 #000000 0 1;
#X text 671 178 tiempo retraso;
#X obj 234 185 samplerate~;
#X floatatom 239 208 5 0 0 0 - - - 0;
#X obj 233 134 loadbang;
#X obj 234 163 bng 15 250 50 0 empty empty empty 17 7 0 10 #fcfcfc
#000000 #000000;
#X obj 24 326 *~ 44100, f 31;
#X obj 24 298 vline~;
#X obj 24 237 bng 15 250 50 0 empty empty empty 17 7 0 10 #fcfcfc #000000
#000000;
#X msg 23 261 0 0 0 \, 1 1000 0;
#N canvas 1101 575 399 293 selectorTecla 0;
#X obj 97 247 outlet;
#X obj 266 27 inlet;
#X floatatom 265 58 5 0 0 0 - - - 0;
#X obj 97 27 key;
#X obj 158 20 keyup;
#X obj 98 176 tgl 15 0 empty empty empty 17 7 0 10 #fcfcfc #000000
#000000 0 1;
#X msg 98 99 1;
#X msg 158 98 0;
#X obj 99 149 change;
#X obj 97 225 bng 15 250 50 0 empty empty empty 17 7 0 10 #fcfcfc #000000
#000000;
#X obj 97 197 sel 1 0;
#X floatatom 99 123 5 0 0 0 - - - 0;
#X floatatom 44 71 5 0 0 0 - - - 0;
#X obj 98 71 sel 120;
#X obj 157 71 sel 120;
#X obj 160 244 outlet;
#X obj 159 224 bng 15 250 50 0 empty empty empty 17 7 0 10 #fcfcfc
#000000 #000000;
#X connect 1 0 2 0;
#X connect 1 0 13 1;
#X connect 1 0 14 1;
#X connect 3 0 12 0;
#X connect 3 0 13 0;
#X connect 4 0 14 0;
#X connect 5 0 10 0;
#X connect 6 0 11 0;
#X connect 7 0 11 0;
#X connect 8 0 5 0;
#X connect 9 0 0 0;
#X connect 10 0 9 0;
#X connect 10 1 16 0;
#X connect 11 0 8 0;
#X connect 13 0 6 0;
#X connect 14 0 7 0;
#X connect 16 0 15 0;
#X restore 24 211 pd selectorTecla;
#X msg 24 183 120;
#X obj 24 158 loadbang;
#X text 55 183 tecla x;
#X obj 26 414 *~;
#X floatatom 120 413 5 0 0 0 - - - 0;
#X text 138 128 velocidad;
#X obj 162 150 vsl 15 128 0 127 0 0 empty empty empty 0 -9 0 10 #fcfcfc
#000000 #000000 0 1;
#X floatatom 162 295 5 0 0 0 - - - 0;
#X obj 120 384 expr 10 * ($f1 / 127);
#X obj 675 340 expr 1000 * ($f1 / 127);
#X connect 1 0 2 0;
#X connect 2 0 7 0;
#X connect 2 0 13 0;
#X connect 4 0 3 0;
#X connect 5 0 3 0;
#X connect 8 0 9 0;
#X connect 9 0 10 0;
#X connect 9 0 17 0;
#X connect 10 0 14 1;
#X connect 11 0 8 0;
#X connect 13 0 6 0;
#X connect 13 0 6 1;
#X connect 14 0 6 0;
#X connect 14 0 6 1;
#X connect 16 0 11 0;
#X connect 17 0 18 0;
#X connect 18 0 13 1;
#X connect 19 0 20 0;
#X connect 20 0 21 0;
#X connect 21 0 23 0;
#X connect 23 0 2 1;
#X connect 27 0 28 0;
#X connect 28 0 29 0;
#X connect 29 0 30 0;
#X connect 30 0 32 1;
#X connect 32 0 7 0;
#X connect 33 0 32 0;
#X connect 33 0 14 0;
#X connect 34 0 33 0;
#X connect 35 0 36 0;
#X connect 36 0 34 0;
#X connect 37 0 57 0;
#X connect 39 0 40 0;
#X connect 40 0 43 1;
#X connect 41 0 42 0;
#X connect 42 0 39 0;
#X connect 43 0 51 0;
#X connect 44 0 43 0;
#X connect 45 0 46 0;
#X connect 46 0 44 0;
#X connect 47 0 45 0;
#X connect 48 0 47 0;
#X connect 49 0 48 0;
#X connect 51 0 1 0;
#X connect 52 0 51 1;
#X connect 54 0 55 0;
#X connect 55 0 56 0;
#X connect 56 0 52 0;
#X connect 57 0 35 0;
