#N canvas 339 147 311 333 12;
#X obj 78 12 ctlin;
#X floatatom 29 60 5 0 0 0 - - - 0;
#X floatatom 85 60 5 0 0 0 - - - 0;
#X floatatom 145 60 5 0 0 0 - - - 0;
#X obj 29 174 osc~;
#X obj 29 256 dac~;
#X obj 29 209 *~ 0.5;
#X floatatom 29 135 5 0 0 0 - - - 0;
#X obj 29 96 mapear 0 127 300 600;
#X connect 0 0 1 0;
#X connect 0 1 2 0;
#X connect 0 2 3 0;
#X connect 1 0 8 0;
#X connect 4 0 6 0;
#X connect 6 0 5 0;
#X connect 6 0 5 1;
#X connect 7 0 4 0;
#X connect 8 0 7 0;
