#N canvas 1065 349 391 194 12;
#X obj 10 9 inlet;
#X obj 11 124 outlet;
#X obj 11 64 expr \$3 + (($f1 - \$1) * (\$4 - \$3) / (\$2 - \$1));
#X floatatom 10 37 5 0 0 0 - - - 0;
#X floatatom 11 93 5 0 0 0 - - - 0;
#X connect 0 0 3 0;
#X connect 2 0 4 0;
#X connect 3 0 2 0;
#X connect 4 0 1 0;
