#N canvas 624 276 890 589 12;
#X obj 78 11 notein;
#X floatatom 32 61 5 0 0 0 - - - 0;
#X floatatom 165 61 5 0 0 0 - - - 0;
#X floatatom 94 62 6 0 0 0 - - - 0;
#X obj 32 98 mtof;
#X floatatom 32 131 5 0 0 0 - - - 0;
#X obj 32 166 osc~;
#X obj 94 98 / 127;
#X floatatom 94 131 5 0 0 0 - - - 0;
#X obj 74 204 *~;
#X obj 69 247 dac~;
#X obj 315 9 ctlin;
#X floatatom 266 57 5 0 0 0 - - - 0;
#X floatatom 322 57 5 0 0 0 - - - 0;
#X floatatom 382 57 5 0 0 0 - - - 0;
#X connect 0 0 1 0;
#X connect 0 1 3 0;
#X connect 0 2 2 0;
#X connect 1 0 4 0;
#X connect 3 0 7 0;
#X connect 4 0 5 0;
#X connect 5 0 6 0;
#X connect 6 0 9 0;
#X connect 7 0 8 0;
#X connect 8 0 9 1;
#X connect 9 0 10 0;
#X connect 9 0 10 1;
#X connect 11 0 12 0;
#X connect 11 1 13 0;
#X connect 11 2 14 0;
