#N canvas 1283 177 637 542 12;
#X obj 91 76 key;
#X floatatom 72 112 5 0 0 0 - - - 0;
#X floatatom 154 111 5 0 0 0 - - - 0;
#X obj 154 74 keyup;
#X obj 123 111 bng 15 250 50 0 empty empty empty 17 7 0 10 #fcfcfc
#000000 #000000;
#X obj 209 114 bng 15 250 50 0 empty empty empty 17 7 0 10 #fcfcfc
#000000 #000000;
#X text 252 79 notar que ASCII;
#X text 250 97 de teclas 0-9;
#X text 253 114 es 48 + tecla;
#X text 253 132 asi que si restamos 48;
#X text 253 148 recuperamos el numero;
#X obj 72 147 - 48;
#X floatatom 71 175 5 0 0 0 - - - 0;
#X obj 155 147 - 48;
#X floatatom 154 175 5 0 0 0 - - - 0;
#X obj 71 232 bng 15 250 50 0 empty empty empty 17 7 0 10 #fcfcfc #000000
#000000;
#X obj 147 231 bng 15 250 50 0 empty empty empty 17 7 0 10 #fcfcfc
#000000 #000000;
#X obj 220 233 bng 15 250 50 0 empty empty empty 17 7 0 10 #fcfcfc
#000000 #000000;
#X obj 300 235 bng 15 250 50 0 empty empty empty 17 7 0 10 #fcfcfc
#000000 #000000;
#X msg 299 267 0;
#X msg 70 264 200;
#X msg 146 263 300;
#X msg 219 265 400;
#X obj 142 339 osc~;
#X floatatom 143 310 5 0 0 0 - - - 0;
#X obj 150 437 *~;
#X obj 153 478 dac~;
#X obj 71 202 select 1 2 3, f 34;
#X obj 300 299 vsl 15 128 0 127 0 0 empty empty empty 0 -9 0 10 #fcfcfc
#000000 #000000 0 1;
#X obj 301 439 / 127;
#X floatatom 306 465 5 0 0 0 - - - 0;
#X connect 0 0 1 0;
#X connect 0 0 4 0;
#X connect 1 0 11 0;
#X connect 2 0 13 0;
#X connect 3 0 2 0;
#X connect 3 0 5 0;
#X connect 11 0 12 0;
#X connect 12 0 27 0;
#X connect 13 0 14 0;
#X connect 15 0 20 0;
#X connect 16 0 21 0;
#X connect 17 0 22 0;
#X connect 18 0 19 0;
#X connect 19 0 24 0;
#X connect 20 0 24 0;
#X connect 21 0 24 0;
#X connect 22 0 24 0;
#X connect 23 0 25 0;
#X connect 24 0 23 0;
#X connect 25 0 26 0;
#X connect 25 0 26 1;
#X connect 27 0 15 0;
#X connect 27 1 16 0;
#X connect 27 2 17 0;
#X connect 27 3 18 0;
#X connect 28 0 29 0;
#X connect 29 0 30 0;
#X connect 30 0 25 1;
