#N canvas 240 196 870 484 12;
#X obj 137 156 list store;
#X listbox 142 206 26 0 0 0 - - - 0;
#X obj 60 103 bng 15 250 50 0 empty empty empty 17 7 0 10 #fcfcfc #000000
#000000;
#X msg 294 106 append 3;
#X obj 380 106 bng 15 250 50 0 empty empty empty 17 7 0 10 #fcfcfc
#000000 #000000;
#X msg 127 93 append \$1;
#X floatatom 127 66 5 0 0 0 - - - 0;
#X obj 128 30 metro 1000;
#N canvas 210 217 252 254 counter 1;
#X obj 50 18 inlet;
#X obj 49 194 outlet;
#X obj 107 18 inlet;
#X obj 107 58 bng 15 250 50 0 empty empty empty 17 7 0 10 #fcfcfc #000000
#000000;
#X msg 108 86 0;
#X obj 49 87 bng 15 250 50 0 empty empty empty 17 7 0 10 #fcfcfc #000000
#000000;
#X obj 49 116 int, f 9;
#X floatatom 50 150 5 0 0 0 - - - 0;
#X obj 177 113 + 1, f 4;
#X text 130 54 reset;
#X connect 0 0 5 0;
#X connect 2 0 3 0;
#X connect 3 0 4 0;
#X connect 4 0 6 1;
#X connect 5 0 6 0;
#X connect 6 0 7 0;
#X connect 7 0 8 0;
#X connect 7 0 1 0;
#X connect 8 0 6 1;
#X restore 611 171 pd counter;
#X connect 0 0 1 0;
#X connect 2 0 0 0;
#X connect 3 0 0 0;
#X connect 4 0 0 1;
#X connect 5 0 0 0;
#X connect 6 0 5 0;
#X connect 7 0 6 0;
