#N canvas 516 136 443 670 12;
#X obj 29 205 bng 15 250 50 0 empty empty empty 17 7 0 10 #fcfcfc #000000
#000000;
#X floatatom 22 413 5 0 0 0 - - - 0;
#X obj 177 564 dac~;
#X obj 179 485 osc~;
#X msg 234 455 0;
#X floatatom 235 495 5 0 0 0 - - - 0;
#X obj 178 530 *~;
#X obj 234 423 sel 0 1;
#X obj 27 79 bng 15 250 50 0 empty empty empty 17 7 0 10 #fcfcfc #000000
#000000;
#X obj 44 46 metro 1000;
#X obj 44 16 tgl 15 0 empty empty empty 17 7 0 10 #fcfcfc #000000 #000000
0 1;
#X obj 44 107 random 9000;
#X obj 44 162 + 1000;
#X floatatom 44 136 5 0 0 0 - - - 0;
#X floatatom 118 187 5 0 0 0 - - - 0;
#X obj 22 440 mtof;
#X floatatom 23 467 5 0 0 0 - - - 0;
#X floatatom 234 326 5 0 0 0 - - - 0;
#X obj 234 299 random 100;
#X obj 233 362 < 100;
#X floatatom 233 392 5 0 0 0 - - - 0;
#X floatatom 317 329 5 0 0 0 - - - 0;
#X msg 269 455 0.3;
#X obj 22 384 + 50;
#X obj 22 334 list store 0 2 4 5 7 9 11;
#X floatatom 22 284 5 0 0 0 - - - 0;
#X obj 22 259 random 7;
#X msg 22 308 get \$1;
#X floatatom 22 360 5 0 0 0 - - - 0;
#X connect 0 0 18 0;
#X connect 0 0 26 0;
#X connect 1 0 15 0;
#X connect 3 0 6 0;
#X connect 4 0 5 0;
#X connect 5 0 6 1;
#X connect 6 0 2 0;
#X connect 6 0 2 1;
#X connect 7 0 4 0;
#X connect 7 1 22 0;
#X connect 8 0 11 0;
#X connect 8 0 0 0;
#X connect 9 0 8 0;
#X connect 10 0 9 0;
#X connect 11 0 13 0;
#X connect 12 0 14 0;
#X connect 13 0 12 0;
#X connect 14 0 9 1;
#X connect 15 0 16 0;
#X connect 16 0 3 0;
#X connect 17 0 19 0;
#X connect 18 0 17 0;
#X connect 19 0 20 0;
#X connect 20 0 7 0;
#X connect 21 0 19 1;
#X connect 22 0 5 0;
#X connect 23 0 1 0;
#X connect 24 0 28 0;
#X connect 25 0 27 0;
#X connect 26 0 25 0;
#X connect 27 0 24 0;
#X connect 28 0 23 0;
