#N canvas 168 181 908 613 12;
#X obj 56 535 dac~;
#X obj 56 398 *~, f 39;
#X text 184 417 multiplicar audio multiplica oscilador en la izquierda
por numero en la derecha, f 41;
#X text 96 530 conversor digital analogo convierte del mundo del computador
a la salida analoga del computador como parlantes o audifonos \, stereo
, f 52;
#X obj 586 375 metro 100;
#X obj 584 353 tgl 15 0 empty empty empty 17 7 0 10 #fcfcfc #000000
#000000 0 1;
#X obj 518 349 vline~;
#X obj 587 430 snapshot~;
#X obj 587 403 bng 15 250 50 0 empty empty empty 17 7 0 10 #fcfcfc
#000000 #000000;
#X floatatom 588 472 5 0 0 0 - - - 0;
#X obj 380 192 bng 15 250 50 0 empty empty empty 17 7 0 10 #fcfcfc
#000000 #000000;
#X obj 517 262 bng 15 250 50 0 empty empty empty 17 7 0 10 #fcfcfc
#000000 #000000;
#X obj 380 134 tgl 15 0 empty empty empty 17 7 0 10 #fcfcfc #000000
#000000 0 1;
#X obj 640 228 bng 15 250 50 0 empty empty empty 17 7 0 10 #fcfcfc
#000000 #000000;
#X obj 380 159 sel 1 0;
#X text 514 662 comment;
#X text 403 267 attack;
#X text 543 266 decay;
#X text 670 264 release;
#X obj 378 48 tgl 15 0 empty empty empty 17 7 0 10 #fcfcfc #000000
#000000 0 1;
#X obj 380 103 bng 15 250 50 0 empty empty empty 17 7 0 10 #fcfcfc
#000000 #000000;
#X text 404 46 prender y apagar;
#X msg 381 288 0 0 0 \, 1 100 0;
#X obj 517 233 delay 100;
#X msg 518 288 0.5 200 0;
#X msg 640 286 0 300 0;
#X obj 379 75 metro 1000;
#X obj 55 497 lop~;
#X floatatom 120 462 5 0 0 0 - - - 0;
#X text 166 465 frecuencia de corte;
#X obj 56 356 noise~;
#X text 17 15 04-filtro \, v0.0.1 agosto 2022 \, por montoyamoraga
\, AUDIV020 Diseno de instrumentos musicales digitales \, hecho con
Pd v0.52-2 en Mac OS Monterey 12.5, f 33;
#X connect 1 0 27 0;
#X connect 4 0 8 0;
#X connect 5 0 4 0;
#X connect 6 0 7 0;
#X connect 6 0 1 1;
#X connect 7 0 9 0;
#X connect 8 0 7 0;
#X connect 10 0 22 0;
#X connect 10 0 23 0;
#X connect 11 0 24 0;
#X connect 12 0 14 0;
#X connect 13 0 25 0;
#X connect 14 0 10 0;
#X connect 14 1 13 0;
#X connect 19 0 26 0;
#X connect 20 0 12 0;
#X connect 22 0 6 0;
#X connect 23 0 11 0;
#X connect 24 0 6 0;
#X connect 25 0 6 0;
#X connect 26 0 20 0;
#X connect 27 0 0 0;
#X connect 27 0 0 1;
#X connect 28 0 27 1;
#X connect 30 0 1 0;
