#N canvas 239 44 689 737 12;
#X obj 64 379 adc~ 1;
#X obj 65 449 *~, f 19;
#X obj 192 366 loadbang;
#X floatatom 193 419 5 0 0 0 - - - 0;
#X msg 193 392 1;
#N canvas 0 22 450 278 (subpatch) 0;
#X array arreglo 26176 float 2;
#X coords 0 1 26176 -1 200 140 1 0 0;
#X restore 11 181 graph;
#X obj 66 594 tabwrite~ arreglo;
#X obj 106 488 key;
#X floatatom 106 515 5 0 0 0 - - - 0;
#X obj 107 540 sel 32;
#X obj 107 565 bng 15 250 50 0 empty empty empty 17 7 0 10 #fcfcfc
#000000 #000000;
#X obj 219 483 env~;
#X obj 219 510 - 90;
#X obj 220 541 vu 15 120 empty empty -1 -8 0 10 #404040 #000000 1 0
;
#X msg 13 119 \; arreglo normalize;
#X text 11 98 normalizar;
#X obj 299 338 tabread~ arreglo;
#X obj 421 161 vsl 15 128 0 127 0 0 empty empty empty 0 -9 0 10 #fcfcfc
#000000 #000000 0 1;
#X obj 393 79 samplerate~;
#X floatatom 393 109 5 0 0 0 - - - 0;
#X obj 392 28 loadbang;
#X obj 392 54 bng 15 250 50 0 empty empty empty 17 7 0 10 #fcfcfc #000000
#000000;
#X obj 299 397 dac~;
#X obj 297 285 phasor~ 1;
#X obj 298 312 *~ 44100, f 12;
#X obj 299 365 *~, f 18;
#X floatatom 421 304 5 0 0 0 - - - 0;
#X obj 422 332 / 127;
#X obj 300 16 vsl 15 128 0 127 0 0 empty empty empty 0 -9 0 10 #fcfcfc
#000000 #000000 0 1;
#X floatatom 300 155 5 0 0 0 - - - 0;
#X obj 300 179 / 127;
#X floatatom 297 260 5 0 0 0 - - - 0;
#X text 449 243 volumen;
#X obj 299 208 - 0.5;
#X obj 298 235 * 10;
#X text 317 100 velocidad;
#X text 64 357 entrada audio;
#X text 9 327 este buffer mide 44100 samples;
#X text 233 421 volumen;
#X obj 442 543 writesf~;
#X msg 444 430 open archivo.wav \, start;
#X msg 465 513 stop;
#X text 437 392 click para crear archivo;
#X text 440 408 y empezar a grabar;
#X text 472 491 click para cerrar archivo;
#X obj 352 693 soundfiler;
#X msg 351 659 read -resize ./archivo.wav arreglo;
#X text 348 633 cargar archivo;
#X text 15 6 12-grabar-sonido \, v0.0.1 septiembre 2022 \, por montoyamoraga
\, AUDIV020 Diseno de instrumentos musicales digitales \, hecho con
Pd v0.52-2 en Mac OS Monterey 12.5, f 33;
#X connect 0 0 1 0;
#X connect 1 0 6 0;
#X connect 1 0 11 0;
#X connect 2 0 4 0;
#X connect 3 0 1 1;
#X connect 4 0 3 0;
#X connect 7 0 8 0;
#X connect 8 0 9 0;
#X connect 9 0 10 0;
#X connect 10 0 6 0;
#X connect 11 0 12 0;
#X connect 12 0 13 0;
#X connect 16 0 25 0;
#X connect 17 0 26 0;
#X connect 18 0 19 0;
#X connect 19 0 24 1;
#X connect 20 0 21 0;
#X connect 21 0 18 0;
#X connect 23 0 24 0;
#X connect 24 0 16 0;
#X connect 25 0 22 0;
#X connect 25 0 22 1;
#X connect 25 0 39 0;
#X connect 26 0 27 0;
#X connect 27 0 25 1;
#X connect 28 0 29 0;
#X connect 29 0 30 0;
#X connect 30 0 33 0;
#X connect 31 0 23 0;
#X connect 33 0 34 0;
#X connect 34 0 31 0;
#X connect 40 0 39 0;
#X connect 41 0 39 0;
#X connect 46 0 45 0;
