#N canvas 141 96 999 729 12;
#X obj 86 131 noteout, f 25;
#X obj 90 309 ctlout, f 25;
#X msg 44 42 40;
#X floatatom 86 91 5 0 0 0 - - - 0;
#X msg 81 42 50;
#X msg 119 41 60;
#X floatatom 172 98 5 0 0 0 - - - 0;
#X floatatom 258 99 5 0 0 0 - - - 0;
#X floatatom 89 267 5 0 0 0 - - - 0;
#X msg 47 218 22;
#X msg 84 218 89;
#X msg 122 217 124;
#X obj 217 29 loadbang;
#X msg 173 66 127;
#X msg 259 63 1;
#X floatatom 176 269 5 0 0 0 - - - 0;
#X floatatom 262 267 5 0 0 0 - - - 0;
#X obj 221 197 loadbang;
#X msg 263 231 1;
#X msg 177 234 5;
#X connect 2 0 3 0;
#X connect 3 0 0 0;
#X connect 4 0 3 0;
#X connect 5 0 3 0;
#X connect 6 0 0 1;
#X connect 7 0 0 2;
#X connect 8 0 1 0;
#X connect 9 0 8 0;
#X connect 10 0 8 0;
#X connect 11 0 8 0;
#X connect 12 0 13 0;
#X connect 12 0 14 0;
#X connect 13 0 6 0;
#X connect 14 0 7 0;
#X connect 15 0 1 1;
#X connect 16 0 1 2;
#X connect 17 0 19 0;
#X connect 17 0 18 0;
#X connect 18 0 16 0;
#X connect 19 0 15 0;
