#N canvas 58 115 749 620 12;
#X obj 144 82 ctlin, f 15;
#X floatatom 139 130 5 0 0 0 - - - 0;
#X floatatom 193 137 5 0 0 0 - - - 0;
#X floatatom 239 138 5 0 0 0 - - - 0;
#X obj 131 280 route 1;
#X obj 130 219 pack i i i;
#X listbox 129 328 8 0 0 0 - - - 0;
#X obj 128 359 unpack i i;
#X floatatom 132 412 5 0 0 0 - - - 0;
#X floatatom 194 412 5 0 0 0 - - - 0;
#X listbox 276 323 8 0 0 0 - - - 0;
#X obj 275 354 unpack i i;
#X floatatom 279 407 5 0 0 0 - - - 0;
#X floatatom 341 407 5 0 0 0 - - - 0;
#X obj 278 275 route 2;
#X connect 0 0 1 0;
#X connect 0 1 2 0;
#X connect 0 2 3 0;
#X connect 1 0 5 1;
#X connect 2 0 5 2;
#X connect 3 0 5 0;
#X connect 4 0 6 0;
#X connect 5 0 4 0;
#X connect 5 0 14 0;
#X connect 6 0 7 0;
#X connect 7 0 8 0;
#X connect 7 1 9 0;
#X connect 10 0 11 0;
#X connect 11 0 12 0;
#X connect 11 1 13 0;
#X connect 14 0 10 0;
