#N canvas 129 130 701 543 12;
#X obj 144 82 ctlin, f 15;
#X floatatom 139 130 5 0 0 0 - - - 0;
#X floatatom 195 131 5 0 0 0 - - - 0;
#X obj 138 249 route 1;
#X floatatom 208 285 5 0 0 0 - - - 0;
#X obj 205 249 route 2;
#X obj 137 191 pack i i;
#X floatatom 135 285 5 0 0 0 - - - 0;
#X connect 0 0 1 0;
#X connect 0 1 2 0;
#X connect 1 0 6 1;
#X connect 2 0 6 0;
#X connect 3 0 7 0;
#X connect 5 0 4 0;
#X connect 6 0 3 0;
#X connect 6 0 5 0;
