#N canvas 589 350 350 555 12;
#X obj 40 418 osc~;
#X obj 13 513 dac~;
#X obj 39 477 *~;
#X obj 226 206 vsl 15 128 0 127 0 0 empty empty empty 0 -9 0 10 #fcfcfc
#000000 #000000 0 1;
#X floatatom 225 354 5 0 0 0 - - - 0;
#X obj 226 382 / 127;
#X obj 42 162 vsl 15 128 0 127 0 0 empty empty empty 0 -9 0 10 #fcfcfc
#000000 #000000 0 1;
#X obj 228 148 loadbang;
#X msg 227 173 20;
#X obj 41 361 mtof;
#X floatatom 42 305 5 0 0 0 - - - 0;
#X floatatom 41 388 5 0 0 0 - - - 0;
#X obj 230 409 / 3;
#X floatatom 231 439 5 0 0 0 - - - 0;
#X obj 92 418 osc~;
#X obj 91 364 mtof;
#X floatatom 91 391 5 0 0 0 - - - 0;
#X obj 143 419 osc~;
#X obj 142 365 mtof;
#X floatatom 142 392 5 0 0 0 - - - 0;
#X obj 141 340 + 7;
#X text 11 12 09-acordes-midi \, v0.0.1 septiembre 2022 \, por montoyamoraga
\, AUDIV020 Diseno de instrumentos musicales digitales \, hecho con
Pd v0.52-2 en Mac OS Monterey 12.5, f 33;
#X obj 44 108 loadbang;
#X msg 43 133 50;
#X obj 90 339 + 4;
#X connect 0 0 2 0;
#X connect 2 0 1 0;
#X connect 2 0 1 1;
#X connect 3 0 4 0;
#X connect 4 0 5 0;
#X connect 5 0 12 0;
#X connect 6 0 10 0;
#X connect 7 0 8 0;
#X connect 8 0 3 0;
#X connect 9 0 11 0;
#X connect 10 0 9 0;
#X connect 10 0 20 0;
#X connect 10 0 24 0;
#X connect 11 0 0 0;
#X connect 12 0 13 0;
#X connect 13 0 2 1;
#X connect 14 0 2 0;
#X connect 15 0 16 0;
#X connect 16 0 14 0;
#X connect 17 0 2 0;
#X connect 18 0 19 0;
#X connect 19 0 17 0;
#X connect 20 0 18 0;
#X connect 22 0 23 0;
#X connect 23 0 6 0;
#X connect 24 0 15 0;
