#N canvas 292 378 420 483 12;
#X obj 64 435 dac~;
#X obj 261 153 vsl 15 128 0 127 0 0 empty empty empty 0 -9 0 10 #fcfcfc
#000000 #000000 0 1;
#X floatatom 260 301 5 0 0 0 - - - 0;
#X obj 261 329 / 127;
#X floatatom 260 358 5 0 0 0 - - - 0;
#X obj 65 355 osc~;
#X msg 21 263 110;
#X msg 58 263 220;
#X msg 96 262 440;
#X floatatom 64 317 5 0 0 0 - - - 0;
#X msg 135 263 880;
#X obj 65 398 *~;
#X obj 31 115 key;
#X floatatom 32 142 5 0 0 0 - - - 0;
#X obj 31 168 - 48;
#X floatatom 32 196 5 0 0 0 - - - 0;
#X msg 186 265 0;
#X text 17 6 06-notas-la \, v0.0.1 septiembre 2022 \, por montoyamoraga
\, AUDIV020 Diseno de instrumentos musicales digitales \, hecho con
Pd v0.52-2 en Mac OS Monterey 12.5, f 33;
#X obj 29 226 sel 1 2 3 4;
#X obj 261 101 loadbang;
#X msg 261 126 20;
#X connect 1 0 2 0;
#X connect 2 0 3 0;
#X connect 3 0 4 0;
#X connect 4 0 11 1;
#X connect 5 0 11 0;
#X connect 6 0 9 0;
#X connect 7 0 9 0;
#X connect 8 0 9 0;
#X connect 9 0 5 0;
#X connect 10 0 9 0;
#X connect 11 0 0 0;
#X connect 11 0 0 1;
#X connect 12 0 13 0;
#X connect 13 0 14 0;
#X connect 14 0 15 0;
#X connect 15 0 18 0;
#X connect 16 0 9 0;
#X connect 18 0 6 0;
#X connect 18 1 7 0;
#X connect 18 2 8 0;
#X connect 18 3 10 0;
#X connect 18 4 16 0;
#X connect 19 0 20 0;
#X connect 20 0 1 0;
